<?xml version="1.0" encoding="UTF-8"?>
<!DOCTYPE svg PUBLIC "-//W3C//DTD SVG 1.1//EN" "http://www.w3.org/Graphics/SVG/1.1/DTD/svg11.dtd">
<svg xmlns="http://www.w3.org/2000/svg" version="1.1" width="512px" height="512px" style="shape-rendering:geometricPrecision; text-rendering:geometricPrecision; image-rendering:optimizeQuality; fill-rule:evenodd; clip-rule:evenodd" xmlns:xlink="http://www.w3.org/1999/xlink">
<g><path style="opacity:0.968" fill="#1670ff" d="M 511.5,82.5 C 511.5,85.8333 511.5,89.1667 511.5,92.5C 506.551,104.275 497.884,112.109 485.5,116C 479.492,117.334 473.492,118.668 467.5,120C 466.069,120.465 464.903,121.299 464,122.5C 460.217,150.983 451.217,177.65 437,202.5C 423.427,223.056 404.593,236.222 380.5,242C 364.563,243.253 349.23,246.92 334.5,253C 330.581,254.54 327.081,256.707 324,259.5C 316.447,274.605 309.447,289.938 303,305.5C 295.357,345.88 292.024,386.547 293,427.5C 297.096,435.311 303.596,439.811 312.5,441C 320.654,448.737 320.32,456.07 311.5,463C 299.892,464.579 288.225,464.912 276.5,464C 271.192,463.355 267.692,460.522 266,455.5C 261.225,427.185 256.559,398.852 252,370.5C 252.416,340.177 254.583,310.011 258.5,280C 248.011,279.961 237.511,280.128 227,280.5C 198.417,281.014 170.75,276.347 144,266.5C 126.019,296.109 115.019,328.109 111,362.5C 109.186,387.949 113.519,412.282 124,435.5C 127.703,438.867 131.036,442.534 134,446.5C 137.264,455.398 134.431,461.232 125.5,464C 115.167,464.667 104.833,464.667 94.5,464C 90.1037,463.27 87.2704,460.77 86,456.5C 86.7541,448.88 87.0874,441.213 87,433.5C 82.5934,422.207 79.5934,410.541 78,398.5C 74.6716,367.912 72.3382,337.246 71,306.5C 61.0788,329.851 55.4121,354.184 54,379.5C 52.7907,399.156 52.4574,418.822 53,438.5C 54.6104,442.443 57.2771,445.443 61,447.5C 64.7594,454.888 62.9261,460.388 55.5,464C 47.8333,464.667 40.1667,464.667 32.5,464C 25.0739,462.548 19.9073,458.382 17,451.5C 16.5025,439.467 17.0025,427.467 18.5,415.5C 14.3856,385.255 13.5522,354.922 16,324.5C 18.1669,305.165 20.3336,285.832 22.5,266.5C 20.6972,249.181 20.1972,231.848 21,214.5C 16.0644,223.037 12.2311,232.037 9.5,241.5C 6.13337,244.157 2.80003,244.157 -0.5,241.5C -0.5,238.5 -0.5,235.5 -0.5,232.5C 3.39903,221.371 8.89903,211.038 16,201.5C 18.7026,198.462 21.7026,195.795 25,193.5C 31.331,170.178 44.831,152.344 65.5,140C 81.3841,134.061 96.0507,126.061 109.5,116C 122.305,101.854 136.305,89.1877 151.5,78C 172.323,65.0825 194.323,62.4158 217.5,70C 228.894,75.3935 237.727,83.5602 244,94.5C 249.969,100.902 257.136,105.402 265.5,108C 287.043,110.397 306.377,118.064 323.5,131C 331.5,138.333 339.5,145.667 347.5,153C 356.543,159.349 366.543,162.016 377.5,161C 380.102,160.117 382.269,158.617 384,156.5C 394.927,135.72 402.26,113.72 406,90.5C 407.225,86.3854 408.725,82.3854 410.5,78.5C 406.818,70.421 405.985,62.0877 408,53.5C 409.8,49.3493 412.967,47.3493 417.5,47.5C 426.633,48.4602 433.967,52.6268 439.5,60C 446.81,59.5863 454.143,59.5863 461.5,60C 467.015,62.9235 472.682,65.5902 478.5,68C 492.997,65.5045 503.997,70.3378 511.5,82.5 Z"/></g>
<g><path style="opacity:1" fill="#d5e8ff" d="M 419.5,59.5 C 424.262,60.7513 428.095,63.4179 431,67.5C 432.848,71.7295 434.681,75.8962 436.5,80C 443.839,81.1474 446.506,77.9807 444.5,70.5C 449.511,70.3341 454.511,70.5007 459.5,71C 469.907,78.5204 481.574,81.8537 494.5,81C 500.336,83.22 501.836,87.0533 499,92.5C 496.167,96.6667 492.667,100.167 488.5,103C 480.747,105.938 472.747,107.938 464.5,109C 458.182,111.443 454.015,115.943 452,122.5C 449.124,151.226 439.791,177.559 424,201.5C 407.007,222.578 384.84,233.412 357.5,234C 349.214,235.595 341.214,238.095 333.5,241.5C 333.167,241.167 332.833,240.833 332.5,240.5C 336.597,232.145 340.263,223.645 343.5,215C 343.191,210.668 340.857,209.001 336.5,210C 333.036,214.422 330.203,219.256 328,224.5C 316.333,249.167 304.667,273.833 293,298.5C 284.34,341.748 280.673,385.415 282,429.5C 284.24,437.074 288.74,442.907 295.5,447C 299.615,448.48 303.615,450.147 307.5,452C 302.503,453.144 297.337,453.644 292,453.5C 286.92,453.488 281.92,453.154 277,452.5C 271.731,420.885 266.897,389.219 262.5,357.5C 264.713,332.507 266.88,307.507 269,282.5C 269.667,277.167 269.667,271.833 269,266.5C 266.667,251.167 264.333,235.833 262,220.5C 257.537,214.827 254.037,215.327 251.5,222C 254.214,237.45 256.547,252.95 258.5,268.5C 239.842,269.465 221.175,269.632 202.5,269C 184.165,267.499 166.498,263.332 149.5,256.5C 152.97,251.891 155.637,246.891 157.5,241.5C 156.516,236.616 153.683,235.283 149,237.5C 129.242,266.02 114.575,297.02 105,330.5C 95.8602,367.711 98.5269,404.044 113,439.5C 116.647,443.982 120.481,448.315 124.5,452.5C 115.19,453.498 105.857,453.832 96.5,453.5C 98.4736,445.985 98.9736,438.318 98,430.5C 92.633,417.001 89.2997,403.001 88,388.5C 84.5178,349.22 82.1844,309.886 81,270.5C 89.0695,244.125 97.2362,217.792 105.5,191.5C 103.265,186.208 99.7651,185.208 95,188.5C 78.6571,242.193 62.3237,295.86 46,349.5C 42.7887,379.751 41.4553,410.084 42,440.5C 43.3549,445.38 45.8549,449.547 49.5,453C 43.8333,453.667 38.1667,453.667 32.5,453C 30.4299,452.052 28.9299,450.552 28,448.5C 27.9288,436.824 28.4288,425.158 29.5,413.5C 25.2788,383.6 24.4455,353.6 27,323.5C 29.8926,303.574 32.0592,283.574 33.5,263.5C 30.3377,242.06 30.8377,220.727 35,199.5C 39.5359,179.232 50.3693,163.399 67.5,152C 82.0679,145.716 96.0679,138.383 109.5,130C 121.771,119.732 133.437,108.732 144.5,97C 157.999,85.2517 173.666,78.4184 191.5,76.5C 206.684,75.7225 219.184,81.0558 229,92.5C 235.38,103.777 244.547,111.943 256.5,117C 268.465,120.126 280.465,123.126 292.5,126C 310.029,133.847 325.029,145.18 337.5,160C 345.397,165.614 354.063,169.614 363.5,172C 382.386,175.31 394.553,167.81 400,149.5C 404.23,139.707 407.896,129.707 411,119.5C 412.931,109.008 415.431,98.6751 418.5,88.5C 419,88.1667 419.5,87.8333 420,87.5C 422.876,90.3589 426.043,90.8589 429.5,89C 431.187,87.087 431.687,84.9203 431,82.5C 424.298,78.6401 420.131,72.9734 418.5,65.5C 418.205,63.2646 418.539,61.2646 419.5,59.5 Z"/></g>
<g><path style="opacity:1" fill="#6aa5ff" d="M 419.5,59.5 C 418.539,61.2646 418.205,63.2646 418.5,65.5C 417.203,63.3066 417.203,60.9732 418.5,58.5C 419.107,58.6236 419.44,58.9569 419.5,59.5 Z"/></g>
<g><path style="opacity:1" fill="#2474ff" d="M 453.5,83.5 C 461.818,83.9869 463.485,87.4869 458.5,94C 452.687,94.1708 450.52,91.3375 452,85.5C 452.717,84.9558 453.217,84.2891 453.5,83.5 Z"/></g>
</svg>
